<svg width="82" height="83" viewBox="0 0 82 83" fill="none" xmlns="http://www.w3.org/2000/svg">
<mask id="mask0_0_68" style="mask-type:luminance" maskUnits="userSpaceOnUse" x="0" y="0" width="82" height="83">
<path fill-rule="evenodd" clip-rule="evenodd" d="M0 0.102173H81.8686V83H0V0.102173Z" fill="white"/>
</mask>
<g mask="url(#mask0_0_68)">
<path fill-rule="evenodd" clip-rule="evenodd" d="M77.0639 69.9824C77.0639 74.4892 73.4274 78.1558 68.9575 78.1558H12.9111C8.44113 78.1558 4.80463 74.4892 4.80463 69.9824V31.7885H77.0639V69.9824ZM4.80463 20.5366C4.80463 16.1315 8.27938 12.5292 12.6103 12.3691V13.1203C12.6103 13.5792 12.6568 14.0274 12.7449 14.4605C13.3618 17.4931 16.029 19.7806 19.2161 19.7806C22.8587 19.7806 25.8219 16.7926 25.8219 13.1203V12.3636H56.0466V13.1203C56.0466 16.7926 59.0098 19.7806 62.6524 19.7806C65.8395 19.7806 68.5068 17.4931 69.1237 14.4605C69.2118 14.0274 69.2582 13.5792 69.2582 13.1203V12.3691C73.5892 12.5292 77.0639 16.1315 77.0639 20.5366V26.9441H4.80463V20.5366ZM17.415 6.76252C17.415 5.76103 18.2232 4.94653 19.2161 4.94653C20.2094 4.94653 21.0172 5.76103 21.0172 6.76252V9.94139V13.1203C21.0172 14.1214 20.2094 14.9362 19.2161 14.9362C18.2232 14.9362 17.415 14.1214 17.415 13.1203V9.94139V6.76252ZM60.8513 6.76252C60.8513 5.76103 61.6591 4.94653 62.6524 4.94653C63.6454 4.94653 64.4535 5.76103 64.4535 6.76252V9.94139V13.1203C64.4535 14.1214 63.6454 14.9362 62.6524 14.9362C61.6591 14.9362 60.8513 14.1214 60.8513 13.1203V9.94139V6.76252ZM69.2582 7.52664V6.76252C69.2582 3.09017 66.295 0.102173 62.6524 0.102173C59.0098 0.102173 56.0466 3.09017 56.0466 6.76252V7.51921H25.8219V6.76252C25.8219 3.09017 22.8587 0.102173 19.2161 0.102173C15.5735 0.102173 12.6103 3.09017 12.6103 6.76252V7.52664C5.63007 7.68908 -6.10352e-05 13.4603 -6.10352e-05 20.5366V29.3663V69.9824C-6.10352e-05 77.1604 5.79183 83.0001 12.9111 83.0001H68.9575C76.0767 83.0001 81.8686 77.1604 81.8686 69.9824V29.3663V20.5366C81.8686 13.4603 76.2388 7.68908 69.2582 7.52664V7.52664Z" fill="#FEFEFE"/>
</g>
<path fill-rule="evenodd" clip-rule="evenodd" d="M35.4311 64.3862C35.8363 64.7874 36.3533 65 36.9254 65C37.4978 65 38.0138 64.7878 38.4186 64.3866L55.3807 47.5745C55.7804 47.1788 56 46.6537 56 46.0948C56 45.5268 55.7862 45.0143 55.3818 44.6134C55.3818 44.6131 55.3814 44.6131 55.3814 44.6131C54.9766 44.2119 54.4599 44 53.8871 44C53.3137 44 52.7973 44.2115 52.3939 44.6121L38.7512 58.1344C38.2665 58.6145 37.6101 58.884 36.9254 58.884C36.2407 58.884 35.5836 58.6145 35.0996 58.1344L29.6078 52.6905C29.203 52.2886 28.6867 52.0768 28.1135 52.0768C27.5401 52.0768 27.0241 52.2886 26.621 52.6888C26.2138 53.0921 26 53.6035 26 54.1702C26 54.7383 26.2138 55.2504 26.6182 55.6506L35.4311 64.3862Z" fill="#05E9B4" stroke="#05E9B4"/>
<path fill-rule="evenodd" clip-rule="evenodd" d="M27.4509 52.8185C27.8307 52.4469 28.317 52.2505 28.8573 52.2505C29.3974 52.2505 29.8839 52.4469 30.2654 52.82L35.4403 57.8746C35.8963 58.32 36.5152 58.5703 37.1607 58.5703C37.8058 58.5703 38.4244 58.32 38.8808 57.8746L51.7365 45.3197C52.1167 44.9478 52.6032 44.7515 53.1436 44.7515C53.6834 44.7515 54.1702 44.9482 54.5517 45.3207C54.5517 45.321 54.552 45.321 54.552 45.321C54.9331 45.6935 55.1346 46.169 55.1346 46.6967C55.1346 47.2156 54.9276 47.7031 54.551 48.0702L38.5674 63.6793C38.1863 64.0518 37.7001 64.2486 37.1607 64.2486C36.6213 64.2486 36.1344 64.0512 35.7526 63.6787L27.4483 55.5686C27.0669 55.1967 26.8654 54.7216 26.8654 54.1942C26.8654 53.668 27.0669 53.1932 27.4509 52.8185V52.8185ZM32.3128 67.0396C33.6086 68.3038 35.3303 69 37.1607 69C38.9924 69 40.7141 68.3034 42.0086 67.0386L57.9906 51.4307C59.2861 50.1665 60 48.4851 60 46.6967C60 44.9076 59.2871 43.2262 57.9928 41.962L57.9925 41.9617C56.6977 40.6966 54.9756 40 53.1436 40C51.31 40 49.5873 40.6969 48.2947 41.9617L37.1607 52.8349L33.7069 49.4614C32.4127 48.1959 30.6903 47.4991 28.8573 47.4991C27.0234 47.4991 25.3007 48.1963 24.0097 49.4595C22.7139 50.7237 22 52.4051 22 54.1942C22 55.9839 22.7139 57.6662 24.0088 58.9291L32.3128 67.0396Z" fill="#FEFEFE"/>
</svg>
